PathFileType	4	(X/Y/Z)	Kaydara																																																																																																																									
DataRate	CameraRate	NumFrames	NumMarkers	Units	OrigDataRate	OrigDataStartFrame	OrigNumFrames																																																																																																																					
30	30	4	41	mm	30	1	345																																																																																																																					
Frame#	Time	NABA_LFHD			NABA_RFHD			NABA_LBHD			NABA_RBHD			NABA_LFTShould			NABA_RFTShould			NABA_LRRShould			NABA_RRRShould			NABA_T10			NABA_STRN			NABA_TRUN			NABA_LSHO			NABA_LUPA			NABA_LELB			NABA_LFRM			NABA_LWRA			NABA_LWRB			NABA_LFIN			NABA_RSHO			NABA_RUPA			NABA_RELB			NABA_RFRM			NABA_RWRA			NABA_RWRB			NABA_RFIN			NABA_LFWT			NABA_RFWT			NABA_LBWT			NABA_RBWT			NABA_LTHI			NABA_LKNE			NABA_LSHN			NABA_LANK			NABA_LHEE			NABA_LTOE			NABA_RTHI			NABA_RKNE			NABA_RSHN			NABA_RANK			NABA_RHEE			NABA_RTOE		
		X1	Y1	Z1	X2	Y2	Z2	X3	Y3	Z3	X4	Y4	Z4	X5	Y5	Z5	X6	Y6	Z6	X7	Y7	Z7	X8	Y8	Z8	X9	Y9	Z9	X10	Y10	Z10	X11	Y11	Z11	X12	Y12	Z12	X13	Y13	Z13	X14	Y14	Z14	X15	Y15	Z15	X16	Y16	Z16	X17	Y17	Z17	X18	Y18	Z18	X19	Y19	Z19	X20	Y20	Z20	X21	Y21	Z21	X22	Y22	Z22	X23	Y23	Z23	X24	Y24	Z24	X25	Y25	Z25	X26	Y26	Z26	X27	Y27	Z27	X28	Y28	Z28	X29	Y29	Z29	X30	Y30	Z30	X31	Y31	Z31	X32	Y32	Z32	X33	Y33	Z33	X34	Y34	Z34	X35	Y35	Z35	X36	Y36	Z36	X37	Y37	Z37	X38	Y38	Z38	X39	Y39	Z39	X40	Y40	Z40	X41	Y41	Z41
																																																																																																																												
1	0.01	241.91565	1523.43277	-1797.78107	70.53442	1489.26682	-1789.45648	250.93491	1583.0777	-1909.58038	35.85113	1538.64304	-1868.99857	238.50739	1319.8082	-1943.92365	95.66762	1330.00839	-1940.41595	225.73507	1394.65958	-2060.01266	76.18591	1388.7973	-2046.90552	158.49584	1231.79916	-2135.70343	164.91112	1278.09464	-1897.12402	168.34974	1179.54018	-1851.39679	327.68211	1358.5614	-1998.45016	379.24965	1120.61218	-2038.43292	386.99104	1034.19312	-2013.46252	377.74014	962.56668	-2035.34302	322.00962	807.85385	-1956.60065	391.07933	815.78636	-1959.37378	367.76684	758.64082	-1914.94568	-1.49176	1352.57431	-1979.48456	-54.34513	1143.6869	-2041.57516	-70.28723	1021.40411	-1993.181	-69.58708	927.96738	-1983.20404	8.40183	806.10573	-1905.79147	-62.61834	794.08699	-1903.58688	-39.88567	757.94746	-1873.77426	293.13776	955.8387	-1950.82001	25.82984	955.33783	-1945.40573	233.30959	1018.37814	-2117.28226	71.67733	1032.13089	-2116.60858	289.17347	657.42386	-2093.05786	293.38358	506.19511	-2040.61981	246.48176	309.0918	-2022.73026	273.29098	160.44064	-2097.50122	213.94096	111.62825	-2149.16748	254.91367	77.78089	-1966.90414	26.31113	670.33646	-2089.60052	41.22958	504.44344	-1980.01907	56.63553	333.58681	-2009.31061	50.00296	142.90538	-2078.28735	101.08148	97.91319	-2148.55194	81.25607	76.64195	-1946.44897
2	0.043	241.67906	1523.42224	-1797.92984	70.46975	1489.38156	-1789.62463	250.77934	1583.10379	-1909.65607	35.64315	1538.66302	-1869.08401	234.78285	1327.62878	-1944.72031	95.59701	1330.11093	-1940.53299	225.5949	1394.69559	-2060.2095	75.96036	1388.86261	-2047.00027	158.25435	1231.82922	-2135.84381	164.64893	1278.04955	-1897.30362	168.19708	1179.52965	-1851.54999	327.28691	1358.68408	-1999.09363	379.15806	1120.64705	-2038.66592	386.85593	1034.09988	-2013.49167	377.67891	962.6506	-2035.7193	321.12118	806.6066	-1959.87823	391.00586	815.75989	-1959.85886	367.68024	758.5334	-1915.53223	-1.65424	1352.63412	-1979.54376	-54.4669	1143.84758	-2041.7749	-70.46226	1021.46423	-1993.46634	-69.71591	928.02322	-1983.535	7.68798	805.94475	-1904.8233	-62.72189	794.00696	-1904.03137	-39.95664	757.8521	-1874.33685	292.71067	955.67062	-1951.65802	25.68985	955.30571	-1945.64194	233.23318	1018.44345	-2117.4498	71.53436	1032.18742	-2116.80771	289.08844	657.44949	-2093.23502	293.26488	506.17809	-2040.71548	246.44339	308.70131	-2023.19199	273.28642	160.49366	-2097.20642	213.89818	111.59129	-2149.16489	254.91163	77.7961	-1966.90536	26.11528	670.43236	-2089.97726	41.18318	504.40937	-1980.47546	56.4868	333.60348	-2009.30313	49.93411	142.87432	-2078.33862	101.04775	97.86791	-2148.5524	81.24974	76.62776	-1946.48071
3	0.077	241.4954	1523.45795	-1797.99637	70.4437	1489.16138	-1789.11789	250.5308	1582.70172	-1908.69843	35.46878	1538.64502	-1869.22714	229.53878	1337.56699	-1943.6412	95.44122	1330.14084	-1940.62469	225.43184	1394.68445	-2060.30685	75.79567	1388.9238	-2047.09869	158.09484	1231.84425	-2135.9613	164.52078	1278.09364	-1897.5885	168.06082	1179.54994	-1851.64444	327.40356	1358.58093	-1998.73962	379.07413	1120.46165	-2038.54568	386.75701	1034.20616	-2013.99429	377.55962	962.66083	-2036.01593	321.57036	806.60538	-1960.72266	391.04473	815.662	-1960.3096	367.84729	758.40279	-1916.2439	-1.82076	1352.65976	-1979.57809	-54.68956	1143.91701	-2041.93619	-70.55952	1021.46515	-1993.63907	-69.87689	928.08037	-1983.94745	7.2312	806.10298	-1904.0863	-62.94248	793.92426	-1904.58725	-40.09863	757.65739	-1875.19089	292.40988	955.48752	-1952.31003	25.5407	955.31479	-1945.88348	233.08815	1018.42941	-2117.64984	71.42165	1032.18796	-2117.04178	289.01302	657.42874	-2093.2959	293.1765	506.14334	-2040.67993	246.40627	308.66051	-2023.21609	273.24696	160.30165	-2097.63626	213.89807	111.59461	-2149.1951	254.86172	77.79236	-1966.89713	25.98024	670.40512	-2090.1178	40.98429	504.42837	-1980.58365	56.6756	333.69839	-2009.78394	49.91649	142.83777	-2078.36639	101.02772	97.86326	-2148.58322	81.24862	76.64082	-1946.47491
4	0.11	241.19259	1523.38989	-1798.00919	70.26484	1489.10492	-1789.27063	250.38363	1582.67792	-1908.73016	35.29123	1538.57651	-1869.34174	229.46489	1337.32971	-1943.76556	95.32328	1330.14435	-1940.66193	225.29078	1394.68292	-2060.43381	75.66849	1388.94943	-2047.18048	157.95616	1231.86195	-2136.13129	164.39762	1278.1118	-1897.59583	167.94334	1179.52309	-1851.71158	327.23503	1358.60718	-1999.03839	378.97041	1120.45853	-2038.78632	386.71761	1034.22119	-2014.26071	377.55512	962.69058	-2036.32416	321.63914	806.8277	-1960.75684	391.20693	815.64041	-1960.86182	368.06927	758.29605	-1916.8541	-1.97212	1352.69608	-1979.64325	-54.86715	1144.02016	-2042.10083	-70.74939	1021.60263	-1994.00604	-70.02458	928.11256	-1984.37286	7.20361	806.07307	-1904.84924	-63.15104	793.77243	-1905.21103	-40.27362	757.55302	-1875.59113	292.23505	955.46173	-1952.54608	25.42661	955.28816	-1946.02676	232.93894	1018.41347	-2117.81326	71.28184	1032.18346	-2117.27951	288.9327	657.44812	-2093.34473	293.12113	506.12595	-2040.62149	246.36757	308.62965	-2023.17307	273.24289	160.31187	-2097.52441	213.89074	111.54973	-2149.15527	254.87114	77.80628	-1966.90201	25.89922	670.35446	-2090.27802	40.85681	504.38297	-1980.62393	56.59102	333.66055	-2009.7258	49.88266	142.80327	-2078.33786	101.06524	97.76456	-2148.56659	81.24745	76.65216	-1946.44989
